# xmcd
#
# Track frame offsets:
#	150
#	19433
#	33863
#	46694
#	74288
#	93755
#	110629
#	128695
#	154423
#	175245
#	193648
#	211391
#	252792
#
# Disc length: 3636 seconds
#
# Revision: 0
# Processed by: cddbd v1.5.2PL0 Copyright (c) Steve Scherf et al.
# Submitted via: dBpowerAMP V4.0
#
DISCID=ac0e320d
DTITLE=BRMC - Baby 81
DYEAR=1900
DGENRE=Country
TTITLE0=01-took out a loan
TTITLE1=02-berlin
TTITLE2=03-weapon of choice
TTITLE3=04-windows
TTITLE4=05-cold wind
TTITLE5=06-not what you wanted
TTITLE6=07-666conducer
TTITLE7=08-all you do is talk
TTITLE8=09-lien on your dreams
TTITLE9=10-need some air
TTITLE10=11-killing the light
TTITLE11=12-americanX
TTITLE12=13-am i only?
EXTD=
EXTT0=
EXTT1=
EXTT2=
EXTT3=
EXTT4=
EXTT5=
EXTT6=
EXTT7=
EXTT8=
EXTT9=
EXTT10=
EXTT11=
EXTT12=
PLAYORDER=
